<?xml version="1.0" encoding="UTF-8"?>
<svg id="Layer_1" data-name="Layer 1" xmlns="http://www.w3.org/2000/svg" viewBox="0 0 660.23 698.89">
  <defs>
    <style>
      .cls-1 {
        fill: none;
      }

      .cls-1, .cls-2 {
        stroke: #231f20;
        stroke-miterlimit: 10;
        stroke-width: 5px;
      }

      .cls-2 {
        fill: #231f20;
      }
    </style>
  </defs>
  <path class="cls-1" d="M640.5,354.82v23.43c-5.1,2.96-11.02,4.66-17.33,4.66H332.09v-28.09h308.41Z"/>
  <path class="cls-1" d="M640.5,354.82v75h-50.63c0-20.75-12.2-38.65-29.83-46.91h-43.92c-17.62,8.26-29.82,26.16-29.82,46.91h-154.21v-75h308.41Z"/>
  <path class="cls-1" d="M110.64,429.82c0,4.95,.7,9.74,2,14.28H6.45v-36.9H115.83c-3.32,6.83-5.19,14.51-5.19,22.62Z"/>
  <path class="cls-1" d="M340.5,407.2v36.9H212.22c1.3-4.54,1.99-9.33,1.99-14.28,0-8.11-1.86-15.79-5.18-22.62h131.47Z"/>
  <path class="cls-1" d="M149.35,278.93v100.77c-14.77,3.84-26.97,14.04-33.52,27.5H19.07v-75.13l39.84-20.24,90.44-32.9Z"/>
  <path class="cls-1" d="M149.35,404.31v2.89h-4.51c1.4-1.11,2.91-2.07,4.51-2.89Z"/>
  <path class="cls-1" d="M657.73,145.17v199.03c0,14.54-6.93,27.25-17.23,34.06v-26.68H332.09V145.17h325.64Z"/>
  <path class="cls-1" d="M152.4,276.02c25.64-20.86,44.55-37.99,57.29-50,14.92-14.06,28.06-27.39,50.78-34.52,8.71-2.73,16.99-3.98,22.14-4.76,20.4-3.08,37.65-2.39,49.48-1.19v86.94c-59.9,1.18-119.79,2.36-179.69,3.54Z"/>
  <rect class="cls-2" x="253.6" y="299.93" width="50" height="14.29"/>
  <rect class="cls-1" x="42.29" y="347.68" width="41.92" height="30.57"/>
  <g>
    <path class="cls-1" d="M209.03,407.2c-8.4-17.27-26.11-29.17-46.6-29.17-4.52,0-8.9,.58-13.08,1.67-14.77,3.84-26.97,14.04-33.52,27.5-3.32,6.83-5.19,14.51-5.19,22.62,0,4.95,.7,9.74,2,14.28,6.19,21.66,26.14,37.51,49.79,37.51s43.59-15.85,49.79-37.51c1.3-4.54,1.99-9.33,1.99-14.28,0-8.11-1.86-15.79-5.18-22.62Zm-21.75,36.9c-4.94,8.6-14.22,14.39-24.85,14.39s-19.91-5.79-24.85-14.39c-2.44-4.2-3.82-9.08-3.82-14.28,0-9.2,4.34-17.39,11.08-22.62,1.4-1.11,2.91-2.07,4.51-2.89,3.92-2.02,8.37-3.16,13.08-3.16,6.63,0,12.73,2.25,17.59,6.05,6.74,5.23,11.08,13.42,11.08,22.62,0,5.2-1.38,10.08-3.82,14.28Z"/>
    <path class="cls-1" d="M191.1,429.82c0,5.2-1.38,10.08-3.82,14.28-4.94,8.6-14.22,14.39-24.85,14.39s-19.91-5.79-24.85-14.39c-2.44-4.2-3.82-9.08-3.82-14.28,0-9.2,4.34-17.39,11.08-22.62h4.51v-2.89c3.92-2.02,8.37-3.16,13.08-3.16,6.63,0,12.73,2.25,17.59,6.05,6.74,5.23,11.08,13.42,11.08,22.62Z"/>
    <path class="cls-1" d="M149.35,404.31v2.89h-4.51c1.4-1.11,2.91-2.07,4.51-2.89Z"/>
    <path class="cls-1" d="M149.35,404.31v2.89h-4.51c1.4-1.11,2.91-2.07,4.51-2.89Z"/>
  </g>
  <g>
    <path class="cls-1" d="M560.04,382.91h-43.92c-17.62,8.26-29.82,26.16-29.82,46.91,0,28.6,23.18,51.79,51.78,51.79s51.79-23.19,51.79-51.79c0-20.75-12.2-38.65-29.83-46.91Zm-21.96,75.58c-15.83,0-28.67-12.84-28.67-28.67s12.84-28.67,28.67-28.67,28.67,12.84,28.67,28.67-12.84,28.67-28.67,28.67Z"/>
    <path class="cls-1" d="M560.04,382.91h-43.92c6.67-3.13,14.11-4.88,21.96-4.88s15.3,1.75,21.96,4.88Z"/>
    <circle class="cls-1" cx="538.08" cy="429.82" r="28.67" transform="translate(-3.87 854.75) rotate(-76.72)"/>
  </g>
</svg>